<svg width="512" height="512" viewBox="0 0 512 512" fill="none" xmlns="http://www.w3.org/2000/svg">
  <defs>
    <linearGradient id="bg" x1="86" y1="60" x2="430" y2="452" gradientUnits="userSpaceOnUse">
      <stop stop-color="#12121A"/>
      <stop offset="1" stop-color="#09090D"/>
    </linearGradient>
    <linearGradient id="mark" x1="160" y1="120" x2="350" y2="392" gradientUnits="userSpaceOnUse">
      <stop stop-color="#D500B3"/>
      <stop offset="0.55" stop-color="#B600A8"/>
      <stop offset="1" stop-color="#5C3BFF"/>
    </linearGradient>
    <linearGradient id="accent" x1="230" y1="190" x2="330" y2="330" gradientUnits="userSpaceOnUse">
      <stop stop-color="#E7F0FF" stop-opacity="0.95"/>
      <stop offset="1" stop-color="#BFD2FF" stop-opacity="0.6"/>
    </linearGradient>
  </defs>
  <rect width="512" height="512" rx="120" fill="url(#bg)"/>
  <path d="M141 160C141 137.909 158.909 120 181 120H245C287.494 120 322 154.506 322 197C322 224.223 307.988 247.986 287.002 261.88C315.36 274.539 335 302.995 335 336C335 378.493 300.493 413 258 413H181C158.909 413 141 395.091 141 373V160Z" fill="url(#mark)"/>
  <path d="M214 171H248C267.33 171 283 186.67 283 206C283 225.33 267.33 241 248 241H214V171Z" fill="url(#accent)"/>
  <path d="M214 289H260C279.33 289 295 304.67 295 324C295 343.33 279.33 359 260 359H214V289Z" fill="url(#accent)"/>
  <circle cx="357" cy="171" r="19" fill="#E7F0FF" fill-opacity="0.85"/>
  <path d="M353 300L398 255" stroke="#E7F0FF" stroke-opacity="0.55" stroke-width="18" stroke-linecap="round"/>
  <path d="M353 255L398 300" stroke="#E7F0FF" stroke-opacity="0.55" stroke-width="18" stroke-linecap="round"/>
</svg>